<svg xmlns="http://www.w3.org/2000/svg" xmlns:xlink="http://www.w3.org/1999/xlink" width="2000" zoomAndPan="magnify" viewBox="0 0 1500 1499.999933" height="2000" preserveAspectRatio="xMidYMid meet" version="1.0"><defs><clipPath id="f616dbc326"><path d="M 797 731 L 976.5 731 L 976.5 1046 L 797 1046 Z M 797 731 " clip-rule="nonzero"/></clipPath><clipPath id="215e8289fc"><path d="M 523.5 784 L 611 784 L 611 932 L 523.5 932 Z M 523.5 784 " clip-rule="nonzero"/></clipPath><clipPath id="ff15e96692"><path d="M 523.5 863 L 558 863 L 558 894 L 523.5 894 Z M 523.5 863 " clip-rule="nonzero"/></clipPath><clipPath id="f48c977325"><path d="M 523.5 814 L 611 814 L 611 932 L 523.5 932 Z M 523.5 814 " clip-rule="nonzero"/></clipPath></defs><path fill="#999999" d="M 796.527344 709.414062 C 796.457031 709.601562 795.980469 710.679688 795.980469 710.679688 L 794.359375 714.03125 L 790.773438 721.40625 L 787.570312 728.023438 L 783.800781 735.769531 L 780.59375 742.371094 L 776.539062 750.726562 L 773.402344 757.195312 L 769.332031 765.570312 L 766.046875 772.328125 L 761.703125 781.296875 L 761.683594 781.300781 L 758.039062 788.804688 L 753.703125 797.730469 L 750.421875 804.503906 L 746.109375 813.40625 L 742.933594 819.921875 L 738.199219 829.699219 L 734.992188 836.300781 L 730.359375 845.824219 L 726.835938 853.101562 L 722.195312 862.664062 L 718.988281 869.265625 L 713.839844 879.859375 L 710.117188 887.515625 L 705.035156 897.996094 L 701.5625 905.125 L 696.449219 915.695312 L 696.433594 915.699219 L 693.179688 922.445312 L 687.820312 933.460938 L 684.199219 940.917969 L 679.078125 951.480469 L 679.089844 951.5 L 675.84375 958.148438 L 670.714844 968.683594 L 667.726562 974.863281 L 662.179688 986.289062 L 662.160156 986.292969 L 658.183594 994.492188 L 652.695312 1005.808594 L 648.390625 1014.671875 L 642.980469 1025.832031 L 638.992188 1034.054688 L 631.867188 1030.605469 L 618.171875 1023.980469 L 639.007812 983.0625 L 639.042969 983 L 639.0625 982.992188 L 657.464844 946.839844 L 657.5 946.769531 L 666.097656 929.886719 L 683.925781 894.859375 L 683.921875 894.839844 C 683.921875 894.839844 683.921875 894.839844 683.945312 894.835938 L 692.855469 877.3125 L 692.882812 877.285156 L 701.984375 859.40625 L 702.003906 859.363281 L 710.429688 842.8125 L 710.453125 842.769531 L 718.835938 826.324219 L 718.867188 826.238281 L 726.886719 810.503906 L 734.988281 794.574219 L 735.019531 794.507812 L 742.839844 779.132812 L 742.875 779.082031 L 750.957031 763.199219 L 750.988281 763.171875 L 758.796875 747.835938 L 758.824219 747.75 L 766.183594 733.320312 L 766.203125 733.277344 L 781.457031 703.316406 C 781.457031 703.316406 781.898438 702.546875 781.96875 702.410156 C 783.152344 700.421875 785.574219 699.335938 788.378906 699.578125 C 789.386719 699.664062 790.464844 699.914062 791.535156 700.371094 C 791.660156 700.40625 791.792969 700.472656 791.921875 700.527344 C 793.441406 701.214844 794.535156 702.089844 795.28125 703.039062 C 797.105469 705.277344 797.035156 707.914062 796.527344 709.414062 " fill-opacity="1" fill-rule="nonzero"/><path fill="#999999" d="M 795.726562 711.199219 L 638.992188 1034.0625 L 642.507812 1035.859375 L 798.328125 712.511719 L 795.726562 711.199219 " fill-opacity="1" fill-rule="nonzero"/><path fill="#666666" d="M 778.730469 702.050781 L 615.410156 1020.613281 L 618.917969 1022.515625 L 781.46875 703.316406 L 778.730469 702.050781 " fill-opacity="1" fill-rule="nonzero"/><path fill="#999999" d="M 615.410156 1020.613281 L 614.003906 1024.078125 L 617.378906 1026.011719 L 618.917969 1022.515625 L 615.410156 1020.613281 " fill-opacity="1" fill-rule="nonzero"/><path fill="#808080" d="M 638.992188 1034.0625 L 637.136719 1036.875 L 640.851562 1038.527344 L 642.507812 1035.859375 L 638.992188 1034.0625 " fill-opacity="1" fill-rule="nonzero"/><path fill="#4d4d4d" d="M 796.527344 709.414062 C 796.457031 709.601562 795.980469 710.679688 795.980469 710.679688 L 794.359375 714.03125 L 790.773438 721.40625 L 787.570312 728.023438 L 783.800781 735.769531 L 780.59375 742.371094 L 776.539062 750.726562 L 773.402344 757.195312 L 769.332031 765.570312 L 766.046875 772.328125 L 761.703125 781.296875 L 761.683594 781.300781 L 758.039062 788.804688 L 753.703125 797.730469 L 750.421875 804.503906 L 746.109375 813.40625 L 742.933594 819.921875 L 738.199219 829.699219 L 734.992188 836.300781 L 730.359375 845.824219 L 726.835938 853.101562 L 722.195312 862.664062 L 718.988281 869.265625 L 713.839844 879.859375 L 710.117188 887.515625 L 705.035156 897.996094 L 701.5625 905.125 L 696.449219 915.695312 L 696.433594 915.699219 L 693.179688 922.445312 L 687.820312 933.460938 L 684.199219 940.917969 L 679.078125 951.480469 L 679.089844 951.5 L 675.84375 958.148438 L 670.714844 968.683594 L 667.726562 974.863281 L 662.179688 986.289062 L 662.160156 986.292969 L 658.183594 994.492188 L 652.695312 1005.808594 L 648.390625 1014.671875 L 642.980469 1025.832031 L 638.992188 1034.054688 L 631.867188 1030.605469 L 632.902344 1030.539062 L 795.28125 703.039062 C 797.105469 705.277344 797.035156 707.914062 796.527344 709.414062 " fill-opacity="1" fill-rule="nonzero"/><path fill="#cccccc" d="M 791.535156 700.371094 L 630.40625 1026.007812 L 624.3125 1023.808594 L 788.378906 699.578125 C 789.386719 699.664062 790.464844 699.914062 791.535156 700.371094 " fill-opacity="1" fill-rule="nonzero"/><path fill="#b3b3b3" d="M 637.140625 1036.867188 C 633.289062 1040.742188 626.25 1040.589844 621.375 1036.519531 C 619.765625 1035.179688 618.601562 1033.5625 617.914062 1031.871094 C 616.496094 1028.464844 616.984375 1024.746094 619.542969 1022.171875 C 623.152344 1018.539062 629.578125 1018.445312 634.378906 1021.816406 C 634.6875 1022.03125 634.988281 1022.269531 635.285156 1022.511719 C 640.15625 1026.578125 640.972656 1032.996094 637.140625 1036.867188 " fill-opacity="1" fill-rule="nonzero"/><path fill="#808080" d="M 632.757812 1031.546875 C 629.148438 1035.179688 622.695312 1035.246094 617.914062 1031.871094 C 616.496094 1028.464844 616.984375 1024.746094 619.542969 1022.171875 C 623.152344 1018.539062 629.578125 1018.445312 634.378906 1021.816406 C 635.8125 1025.21875 635.328125 1028.949219 632.757812 1031.546875 " fill-opacity="1" fill-rule="nonzero"/><path fill="#4d4d4d" d="M 648.390625 1014.671875 L 642.980469 1025.832031 L 642.964844 1025.835938 L 629.03125 1002.722656 C 629.03125 1002.722656 639.734375 998.003906 648.390625 1014.671875 " fill-opacity="1" fill-rule="nonzero"/><path fill="#e6e6e6" d="M 629.027344 1002.722656 C 629.027344 1002.722656 629.433594 1006.742188 642.972656 1025.839844 C 642.972656 1025.839844 642.886719 1002.144531 629.027344 1002.722656 " fill-opacity="1" fill-rule="nonzero"/><path fill="#4d4d4d" d="M 658.183594 994.492188 L 652.695312 1005.808594 L 639.007812 983.0625 L 638.976562 983.019531 C 638.976562 983.019531 639.007812 983.007812 639.042969 983 L 639.0625 982.992188 C 640.070312 982.671875 650.070312 979.9375 658.183594 994.492188 " fill-opacity="1" fill-rule="nonzero"/><path fill="#e6e6e6" d="M 638.96875 983.023438 C 638.96875 983.023438 639.164062 986.757812 652.699219 1005.851562 C 652.699219 1005.851562 652.828125 982.441406 638.96875 983.023438 " fill-opacity="1" fill-rule="nonzero"/><path fill="#4d4d4d" d="M 667.726562 974.863281 L 662.179688 986.289062 L 662.160156 986.292969 L 648.882812 963.714844 C 648.882812 963.714844 659.191406 959.566406 667.726562 974.863281 " fill-opacity="1" fill-rule="nonzero"/><path fill="#e6e6e6" d="M 648.890625 963.71875 C 648.890625 963.71875 648.625 967.203125 662.160156 986.296875 C 662.160156 986.296875 662.75 963.140625 648.890625 963.71875 " fill-opacity="1" fill-rule="nonzero"/><path fill="#4d4d4d" d="M 675.84375 958.148438 L 670.714844 968.683594 L 657.464844 946.839844 L 657.429688 946.792969 C 657.429688 946.792969 657.449219 946.785156 657.5 946.769531 C 658.453125 946.449219 668.160156 943.675781 675.84375 958.148438 " fill-opacity="1" fill-rule="nonzero"/><path fill="#e6e6e6" d="M 657.433594 946.785156 C 657.433594 946.785156 658.070312 950.847656 670.746094 968.730469 C 670.746094 968.730469 670.410156 946.242188 657.433594 946.785156 " fill-opacity="1" fill-rule="nonzero"/><path fill="#4d4d4d" d="M 684.199219 940.917969 L 679.078125 951.480469 L 666.097656 929.886719 C 666.097656 929.886719 676.148438 926.152344 684.199219 940.917969 " fill-opacity="1" fill-rule="nonzero"/><path fill="#e6e6e6" d="M 666.089844 929.890625 C 666.089844 929.890625 666.417969 933.617188 679.09375 951.5 C 679.09375 951.5 679.070312 929.347656 666.089844 929.890625 " fill-opacity="1" fill-rule="nonzero"/><path fill="#4d4d4d" d="M 693.179688 922.445312 L 687.820312 933.460938 L 675.507812 911.484375 C 675.507812 911.484375 685.199219 908.234375 693.179688 922.445312 " fill-opacity="1" fill-rule="nonzero"/><path fill="#e6e6e6" d="M 675.511719 911.488281 C 675.511719 911.488281 675.140625 915.574219 687.820312 933.457031 C 687.820312 933.457031 688.488281 910.949219 675.511719 911.488281 " fill-opacity="1" fill-rule="nonzero"/><path fill="#4d4d4d" d="M 701.5625 905.125 L 696.449219 915.695312 L 696.433594 915.699219 L 683.925781 894.859375 L 683.921875 894.839844 C 683.921875 894.839844 683.921875 894.839844 683.945312 894.835938 C 684.355469 894.6875 693.839844 891.613281 701.5625 905.125 " fill-opacity="1" fill-rule="nonzero"/><path fill="#e6e6e6" d="M 683.917969 894.847656 C 683.917969 894.847656 683.863281 897.980469 696.433594 915.707031 C 696.433594 915.707031 696.785156 894.308594 683.917969 894.847656 " fill-opacity="1" fill-rule="nonzero"/><path fill="#4d4d4d" d="M 710.117188 887.515625 L 705.035156 897.996094 C 705.015625 898.003906 705.015625 898.003906 704.996094 898.007812 L 692.855469 877.3125 L 692.851562 877.296875 C 692.851562 877.296875 692.867188 877.292969 692.882812 877.285156 C 693.503906 877.03125 702.46875 873.777344 710.117188 887.515625 " fill-opacity="1" fill-rule="nonzero"/><path fill="#e6e6e6" d="M 692.851562 877.289062 C 692.851562 877.289062 692.4375 880.273438 705 898 C 705 898 705.71875 876.75 692.851562 877.289062 " fill-opacity="1" fill-rule="nonzero"/><path fill="#4d4d4d" d="M 718.988281 869.265625 L 713.839844 879.859375 L 701.984375 859.40625 L 701.972656 859.371094 C 701.972656 859.371094 701.988281 859.367188 702.003906 859.363281 C 702.621094 859.09375 711.347656 855.617188 718.988281 869.265625 " fill-opacity="1" fill-rule="nonzero"/><path fill="#e6e6e6" d="M 701.96875 859.378906 C 701.96875 859.378906 701.277344 862.136719 713.839844 879.859375 C 713.839844 879.859375 714.832031 858.839844 701.96875 859.378906 " fill-opacity="1" fill-rule="nonzero"/><path fill="#4d4d4d" d="M 726.835938 853.101562 L 722.195312 862.664062 L 722.179688 862.667969 L 710.429688 842.8125 L 710.398438 842.785156 C 710.398438 842.785156 710.417969 842.777344 710.453125 842.769531 C 711.210938 842.472656 719.746094 839.515625 726.835938 853.101562 " fill-opacity="1" fill-rule="nonzero"/><path fill="#e6e6e6" d="M 710.398438 842.789062 C 710.398438 842.789062 710.585938 846.328125 722.167969 862.664062 C 722.167969 862.664062 722.257812 842.292969 710.398438 842.789062 " fill-opacity="1" fill-rule="nonzero"/><path fill="#4d4d4d" d="M 734.992188 836.300781 L 730.359375 845.824219 L 730.34375 845.828125 L 718.835938 826.324219 L 718.800781 826.261719 C 718.800781 826.261719 718.816406 826.253906 718.867188 826.238281 C 719.683594 825.886719 727.996094 822.875 734.992188 836.300781 " fill-opacity="1" fill-rule="nonzero"/><path fill="#e6e6e6" d="M 718.800781 826.265625 C 718.800781 826.265625 718.769531 829.496094 730.347656 845.835938 C 730.347656 845.835938 730.652344 825.769531 718.800781 826.265625 " fill-opacity="1" fill-rule="nonzero"/><path fill="#4d4d4d" d="M 742.933594 819.921875 L 738.199219 829.699219 L 738.148438 829.714844 L 726.886719 810.503906 C 726.886719 810.503906 735.640625 807.070312 742.933594 819.921875 " fill-opacity="1" fill-rule="nonzero"/><path fill="#e6e6e6" d="M 726.886719 810.511719 C 726.886719 810.511719 726.566406 813.371094 738.148438 829.707031 C 738.148438 829.707031 738.738281 810.015625 726.886719 810.511719 " fill-opacity="1" fill-rule="nonzero"/><path fill="#4d4d4d" d="M 750.421875 804.503906 L 746.109375 813.40625 C 746.085938 813.394531 746.070312 813.398438 746.054688 813.402344 L 734.988281 794.574219 L 734.953125 794.53125 C 734.953125 794.53125 734.972656 794.523438 735.019531 794.507812 C 735.8125 794.203125 743.75 791.621094 750.320312 804.296875 C 750.355469 804.359375 750.382812 804.441406 750.421875 804.503906 " fill-opacity="1" fill-rule="nonzero"/><path fill="#e6e6e6" d="M 734.960938 794.527344 C 734.960938 794.527344 735.242188 798.136719 746.0625 813.398438 C 746.0625 813.398438 746.035156 794.0625 734.960938 794.527344 " fill-opacity="1" fill-rule="nonzero"/><path fill="#4d4d4d" d="M 758.039062 788.804688 L 753.703125 797.730469 L 753.6875 797.734375 L 742.839844 779.132812 L 742.828125 779.101562 C 742.828125 779.101562 742.84375 779.09375 742.875 779.082031 C 743.5625 778.792969 751.363281 775.90625 757.976562 788.65625 C 758.007812 788.703125 758.023438 788.753906 758.039062 788.804688 " fill-opacity="1" fill-rule="nonzero"/><path fill="#e6e6e6" d="M 742.835938 779.097656 C 742.835938 779.097656 742.871094 782.472656 753.6875 797.730469 C 753.6875 797.730469 753.914062 778.632812 742.835938 779.097656 " fill-opacity="1" fill-rule="nonzero"/><path fill="#4d4d4d" d="M 766.046875 772.328125 L 761.703125 781.296875 L 761.683594 781.300781 L 750.957031 763.199219 L 750.953125 763.179688 C 750.953125 763.179688 750.96875 763.175781 750.988281 763.171875 C 751.570312 762.910156 759.414062 759.804688 766.046875 772.328125 " fill-opacity="1" fill-rule="nonzero"/><path fill="#e6e6e6" d="M 750.960938 763.183594 C 750.960938 763.183594 750.863281 766.050781 761.679688 781.308594 C 761.679688 781.308594 762.035156 762.722656 750.960938 763.183594 " fill-opacity="1" fill-rule="nonzero"/><path fill="#4d4d4d" d="M 773.402344 757.195312 L 769.332031 765.570312 L 769.316406 765.578125 L 758.796875 747.835938 L 758.761719 747.773438 C 758.761719 747.773438 758.777344 747.765625 758.824219 747.75 C 759.636719 747.4375 767.113281 745.058594 773.292969 756.96875 C 773.339844 757.046875 773.378906 757.128906 773.402344 757.195312 " fill-opacity="1" fill-rule="nonzero"/><path fill="#e6e6e6" d="M 758.753906 747.78125 C 758.753906 747.78125 759.113281 751.191406 769.3125 765.582031 C 769.3125 765.582031 769.203125 747.34375 758.753906 747.78125 " fill-opacity="1" fill-rule="nonzero"/><path fill="#4d4d4d" d="M 780.59375 742.371094 L 776.539062 750.726562 L 766.183594 733.320312 L 766.15625 733.292969 C 766.15625 733.292969 766.175781 733.289062 766.203125 733.277344 C 766.890625 732.984375 774.28125 730.207031 780.523438 742.207031 C 780.558594 742.253906 780.578125 742.320312 780.59375 742.371094 " fill-opacity="1" fill-rule="nonzero"/><path fill="#e6e6e6" d="M 766.148438 733.289062 C 766.148438 733.289062 766.367188 736.367188 776.566406 750.753906 C 776.566406 750.753906 776.59375 732.851562 766.148438 733.289062 " fill-opacity="1" fill-rule="nonzero"/><path fill="#4d4d4d" d="M 787.570312 728.023438 L 783.800781 735.769531 C 783.785156 735.773438 783.785156 735.773438 783.769531 735.78125 L 773.667969 718.664062 C 773.667969 718.664062 780.859375 715.023438 787.097656 727.0625 C 787.277344 727.394531 787.433594 727.714844 787.570312 728.023438 " fill-opacity="1" fill-rule="nonzero"/><path fill="#e6e6e6" d="M 773.664062 718.671875 C 773.664062 718.671875 774.019531 722.011719 783.773438 735.773438 C 783.773438 735.773438 783.652344 718.253906 773.664062 718.671875 " fill-opacity="1" fill-rule="nonzero"/><path fill="#4d4d4d" d="M 794.359375 714.03125 L 790.773438 721.40625 L 780.8125 704.671875 C 780.8125 704.671875 788.109375 701.886719 793.910156 713.082031 C 794.089844 713.414062 794.226562 713.722656 794.359375 714.03125 " fill-opacity="1" fill-rule="nonzero"/><path fill="#e6e6e6" d="M 780.8125 704.664062 C 780.8125 704.664062 781.707031 708.621094 790.769531 721.40625 C 790.769531 721.40625 790.089844 704.277344 780.8125 704.664062 " fill-opacity="1" fill-rule="nonzero"/><path fill="#999999" d="M 819.933594 714.78125 C 819.820312 714.949219 819.144531 715.910156 819.144531 715.910156 L 816.867188 718.863281 L 811.859375 725.351562 L 807.375 731.179688 L 802.109375 737.996094 L 797.628906 743.808594 L 791.953125 751.164062 L 787.566406 756.859375 L 781.878906 764.234375 L 777.289062 770.179688 L 771.210938 778.078125 L 771.195312 778.078125 L 766.101562 784.679688 L 760.03125 792.539062 L 755.445312 798.503906 L 749.414062 806.339844 L 744.976562 812.078125 L 738.351562 820.683594 L 733.867188 826.496094 L 727.394531 834.878906 L 722.460938 841.285156 L 715.976562 849.703125 L 711.492188 855.515625 L 704.300781 864.839844 L 699.097656 871.578125 L 691.980469 880.808594 L 687.140625 887.082031 L 679.984375 896.386719 L 679.964844 896.386719 L 675.40625 902.332031 L 667.914062 912.027344 L 662.855469 918.589844 L 655.695312 927.894531 L 655.695312 927.910156 L 651.167969 933.765625 L 644.003906 943.03125 L 639.820312 948.476562 L 632.066406 958.535156 L 632.046875 958.535156 L 626.484375 965.757812 L 618.808594 975.714844 L 612.792969 983.519531 L 605.222656 993.34375 L 599.644531 1000.582031 L 593.371094 995.757812 L 581.308594 986.488281 L 610.035156 950.664062 L 610.082031 950.605469 L 610.101562 950.605469 L 635.476562 918.949219 L 635.523438 918.890625 L 647.375 904.109375 L 671.960938 873.441406 L 671.960938 873.421875 C 671.960938 873.421875 671.960938 873.421875 671.976562 873.421875 L 684.265625 858.078125 L 684.304688 858.058594 L 696.847656 842.40625 L 696.878906 842.367188 L 708.496094 827.875 L 708.527344 827.835938 L 720.082031 813.441406 L 720.128906 813.363281 L 731.179688 799.589844 L 742.351562 785.640625 L 742.398438 785.582031 L 753.179688 772.121094 L 753.226562 772.078125 L 764.375 758.167969 L 764.40625 758.148438 L 775.175781 744.722656 L 775.21875 744.648438 L 785.359375 732.015625 L 785.390625 731.976562 L 806.417969 705.746094 C 806.417969 705.746094 807.007812 705.078125 807.101562 704.960938 C 808.667969 703.257812 811.253906 702.6875 813.949219 703.492188 C 814.921875 703.78125 815.925781 704.246094 816.886719 704.910156 C 817 704.972656 817.113281 705.066406 817.230469 705.140625 C 818.574219 706.125 819.464844 707.203125 820.007812 708.285156 C 821.339844 710.847656 820.734375 713.417969 819.933594 714.78125 " fill-opacity="1" fill-rule="nonzero"/><path fill="#999999" d="M 818.789062 716.367188 L 599.644531 1000.59375 L 602.71875 1003.066406 L 821.070312 718.179688 L 818.789062 716.367188 " fill-opacity="1" fill-rule="nonzero"/><path fill="#666666" d="M 804.003906 703.953125 L 579.289062 982.625 L 582.339844 985.203125 L 806.421875 705.746094 L 804.003906 703.953125 " fill-opacity="1" fill-rule="nonzero"/><path fill="#999999" d="M 579.289062 982.625 L 577.207031 985.734375 L 580.121094 988.3125 L 582.339844 985.203125 L 579.289062 982.625 " fill-opacity="1" fill-rule="nonzero"/><path fill="#808080" d="M 599.644531 1000.59375 L 597.257812 1002.96875 L 600.554688 1005.34375 L 602.71875 1003.066406 L 599.644531 1000.59375 " fill-opacity="1" fill-rule="nonzero"/><path fill="#4d4d4d" d="M 819.933594 714.78125 C 819.820312 714.949219 819.144531 715.910156 819.144531 715.910156 L 816.867188 718.863281 L 811.859375 725.351562 L 807.375 731.179688 L 802.109375 737.996094 L 797.628906 743.808594 L 791.953125 751.164062 L 787.566406 756.859375 L 781.878906 764.234375 L 777.289062 770.179688 L 771.210938 778.078125 L 771.195312 778.078125 L 766.101562 784.679688 L 760.03125 792.539062 L 755.445312 798.503906 L 749.414062 806.339844 L 744.976562 812.078125 L 738.351562 820.683594 L 733.867188 826.496094 L 727.394531 834.878906 L 722.460938 841.285156 L 715.976562 849.703125 L 711.492188 855.515625 L 704.300781 864.839844 L 699.097656 871.578125 L 691.980469 880.808594 L 687.140625 887.082031 L 679.984375 896.386719 L 679.964844 896.386719 L 675.40625 902.332031 L 667.914062 912.027344 L 662.855469 918.589844 L 655.695312 927.894531 L 655.695312 927.910156 L 651.167969 933.765625 L 644.003906 943.03125 L 639.820312 948.476562 L 632.066406 958.535156 L 632.046875 958.535156 L 626.484375 965.757812 L 618.808594 975.714844 L 612.792969 983.519531 L 605.222656 993.34375 L 599.644531 1000.582031 L 593.371094 995.757812 L 594.398438 995.902344 L 820.007812 708.285156 C 821.339844 710.847656 820.734375 713.417969 819.933594 714.78125 " fill-opacity="1" fill-rule="nonzero"/><path fill="#cccccc" d="M 816.886719 704.910156 L 592.875 990.957031 L 587.355469 987.566406 L 813.949219 703.492188 C 814.921875 703.78125 815.925781 704.246094 816.886719 704.910156 " fill-opacity="1" fill-rule="nonzero"/><path fill="#b3b3b3" d="M 597.261719 1002.960938 C 592.703125 1005.972656 585.839844 1004.390625 581.898438 999.414062 C 580.589844 997.769531 579.78125 995.953125 579.453125 994.160156 C 578.757812 990.535156 579.992188 986.996094 583.019531 984.992188 C 587.296875 982.171875 593.605469 983.386719 597.617188 987.660156 C 597.875 987.9375 598.121094 988.230469 598.363281 988.527344 C 602.308594 993.503906 601.800781 999.949219 597.261719 1002.960938 " fill-opacity="1" fill-rule="nonzero"/><path fill="#808080" d="M 594.054688 996.863281 C 589.777344 999.683594 583.449219 998.433594 579.453125 994.160156 C 578.757812 990.535156 579.992188 986.996094 583.019531 984.992188 C 587.296875 982.171875 593.605469 983.386719 597.617188 987.660156 C 598.328125 991.285156 597.097656 994.839844 594.054688 996.863281 " fill-opacity="1" fill-rule="nonzero"/><path fill="#4d4d4d" d="M 612.792969 983.519531 L 605.222656 993.34375 L 605.203125 993.34375 L 596.269531 967.882812 C 596.269531 967.882812 607.707031 965.4375 612.792969 983.519531 " fill-opacity="1" fill-rule="nonzero"/><path fill="#e6e6e6" d="M 596.265625 967.878906 C 596.265625 967.878906 595.84375 971.898438 605.214844 993.347656 C 605.214844 993.347656 609.949219 970.128906 596.265625 967.878906 " fill-opacity="1" fill-rule="nonzero"/><path fill="#4d4d4d" d="M 626.484375 965.757812 L 618.808594 975.714844 L 610.035156 950.664062 L 610.011719 950.613281 C 610.011719 950.613281 610.046875 950.609375 610.082031 950.605469 L 610.101562 950.605469 C 611.15625 950.492188 621.5 949.851562 626.484375 965.757812 " fill-opacity="1" fill-rule="nonzero"/><path fill="#e6e6e6" d="M 610.007812 950.617188 C 610.007812 950.617188 609.4375 954.308594 618.804688 975.757812 C 618.804688 975.757812 623.695312 952.867188 610.007812 950.617188 " fill-opacity="1" fill-rule="nonzero"/><path fill="#4d4d4d" d="M 639.820312 948.476562 L 632.066406 958.535156 L 632.046875 958.535156 L 623.636719 933.730469 C 623.636719 933.730469 634.574219 931.761719 639.820312 948.476562 " fill-opacity="1" fill-rule="nonzero"/><path fill="#e6e6e6" d="M 623.648438 933.734375 C 623.648438 933.734375 622.679688 937.089844 632.046875 958.539062 C 632.046875 958.539062 637.335938 935.984375 623.648438 933.734375 " fill-opacity="1" fill-rule="nonzero"/><path fill="#4d4d4d" d="M 651.167969 933.765625 L 644.003906 943.03125 L 635.476562 918.949219 L 635.453125 918.898438 C 635.453125 918.898438 635.46875 918.894531 635.523438 918.890625 C 636.519531 918.769531 646.589844 918.03125 651.167969 933.765625 " fill-opacity="1" fill-rule="nonzero"/><path fill="#e6e6e6" d="M 635.457031 918.890625 C 635.457031 918.890625 635.253906 923 644.027344 943.085938 C 644.027344 943.085938 648.273438 921 635.457031 918.890625 " fill-opacity="1" fill-rule="nonzero"/><path fill="#4d4d4d" d="M 662.855469 918.589844 L 655.695312 927.894531 L 647.375 904.109375 C 647.375 904.109375 657.972656 902.496094 662.855469 918.589844 " fill-opacity="1" fill-rule="nonzero"/><path fill="#e6e6e6" d="M 647.367188 904.109375 C 647.367188 904.109375 646.929688 907.828125 655.703125 927.914062 C 655.703125 927.914062 660.183594 906.222656 647.367188 904.109375 " fill-opacity="1" fill-rule="nonzero"/><path fill="#4d4d4d" d="M 675.40625 902.332031 L 667.914062 912.027344 L 660.335938 888.003906 C 660.335938 888.003906 670.480469 886.792969 675.40625 902.332031 " fill-opacity="1" fill-rule="nonzero"/><path fill="#e6e6e6" d="M 660.335938 888.011719 C 660.335938 888.011719 659.140625 891.933594 667.914062 912.023438 C 667.914062 912.023438 673.152344 890.117188 660.335938 888.011719 " fill-opacity="1" fill-rule="nonzero"/><path fill="#4d4d4d" d="M 687.140625 887.082031 L 679.984375 896.386719 L 679.964844 896.386719 L 671.960938 873.441406 L 671.960938 873.421875 C 671.960938 873.421875 671.960938 873.421875 671.976562 873.421875 C 672.414062 873.359375 682.328125 872.28125 687.140625 887.082031 " fill-opacity="1" fill-rule="nonzero"/><path fill="#e6e6e6" d="M 671.953125 873.429688 C 671.953125 873.429688 671.261719 876.488281 679.964844 896.394531 C 679.964844 896.394531 684.65625 875.519531 671.953125 873.429688 " fill-opacity="1" fill-rule="nonzero"/><path fill="#4d4d4d" d="M 699.097656 871.578125 L 691.980469 880.808594 C 691.96875 880.808594 691.96875 880.808594 691.945312 880.808594 L 684.265625 858.078125 L 684.265625 858.0625 C 684.265625 858.0625 684.28125 858.058594 684.304688 858.058594 C 684.964844 857.933594 694.398438 856.570312 699.097656 871.578125 " fill-opacity="1" fill-rule="nonzero"/><path fill="#e6e6e6" d="M 684.273438 858.054688 C 684.273438 858.054688 683.257812 860.894531 691.957031 880.800781 C 691.957031 880.800781 696.976562 860.144531 684.273438 858.054688 " fill-opacity="1" fill-rule="nonzero"/><path fill="#4d4d4d" d="M 711.492188 855.515625 L 704.300781 864.839844 L 696.847656 842.40625 L 696.84375 842.371094 C 696.84375 842.371094 696.863281 842.367188 696.878906 842.367188 C 697.535156 842.226562 706.789062 840.597656 711.492188 855.515625 " fill-opacity="1" fill-rule="nonzero"/><path fill="#e6e6e6" d="M 696.84375 842.375 C 696.84375 842.375 695.601562 844.933594 704.296875 864.839844 C 704.296875 864.839844 709.546875 844.460938 696.84375 842.375 " fill-opacity="1" fill-rule="nonzero"/><path fill="#4d4d4d" d="M 722.460938 841.285156 L 715.976562 849.703125 L 715.953125 849.703125 L 708.496094 827.875 L 708.472656 827.84375 C 708.472656 827.84375 708.492188 827.839844 708.527344 827.835938 C 709.324219 827.699219 718.292969 826.542969 722.460938 841.285156 " fill-opacity="1" fill-rule="nonzero"/><path fill="#e6e6e6" d="M 708.472656 827.84375 C 708.472656 827.84375 707.933594 831.347656 715.949219 849.699219 C 715.949219 849.699219 720.179688 829.769531 708.472656 827.84375 " fill-opacity="1" fill-rule="nonzero"/><path fill="#4d4d4d" d="M 733.867188 826.496094 L 727.394531 834.878906 L 727.378906 834.878906 L 720.082031 813.441406 L 720.054688 813.371094 C 720.054688 813.371094 720.074219 813.371094 720.128906 813.363281 C 720.996094 813.183594 729.75 811.925781 733.867188 826.496094 " fill-opacity="1" fill-rule="nonzero"/><path fill="#e6e6e6" d="M 720.054688 813.375 C 720.054688 813.375 719.371094 816.535156 727.382812 834.886719 C 727.382812 834.886719 731.765625 815.304688 720.054688 813.375 " fill-opacity="1" fill-rule="nonzero"/><path fill="#4d4d4d" d="M 744.976562 812.078125 L 738.351562 820.683594 L 738.296875 820.691406 L 731.179688 799.589844 C 731.179688 799.589844 740.449219 798.007812 744.976562 812.078125 " fill-opacity="1" fill-rule="nonzero"/><path fill="#e6e6e6" d="M 731.175781 799.59375 C 731.175781 799.59375 730.285156 802.332031 738.296875 820.679688 C 738.296875 820.679688 742.886719 801.523438 731.175781 799.59375 " fill-opacity="1" fill-rule="nonzero"/><path fill="#4d4d4d" d="M 755.445312 798.503906 L 749.414062 806.339844 C 749.394531 806.324219 749.375 806.328125 749.355469 806.328125 L 742.351562 785.640625 L 742.332031 785.589844 C 742.332031 785.589844 742.347656 785.589844 742.398438 785.582031 C 743.238281 785.441406 751.53125 784.53125 755.386719 798.28125 C 755.410156 798.347656 755.417969 798.433594 755.445312 798.503906 " fill-opacity="1" fill-rule="nonzero"/><path fill="#e6e6e6" d="M 742.339844 785.589844 C 742.339844 785.589844 741.875 789.183594 749.367188 806.324219 C 749.367188 806.324219 753.273438 787.386719 742.339844 785.589844 " fill-opacity="1" fill-rule="nonzero"/><path fill="#4d4d4d" d="M 766.101562 784.679688 L 760.03125 792.539062 L 760.015625 792.539062 L 753.179688 772.121094 L 753.175781 772.085938 C 753.175781 772.085938 753.195312 772.082031 753.226562 772.078125 C 753.960938 771.933594 762.179688 770.691406 766.0625 784.523438 C 766.089844 784.574219 766.09375 784.628906 766.101562 784.679688 " fill-opacity="1" fill-rule="nonzero"/><path fill="#e6e6e6" d="M 753.183594 772.085938 C 753.183594 772.085938 752.53125 775.394531 760.015625 792.535156 C 760.015625 792.535156 764.121094 773.882812 753.183594 772.085938 " fill-opacity="1" fill-rule="nonzero"/><path fill="#4d4d4d" d="M 777.289062 770.179688 L 771.210938 778.078125 L 771.195312 778.078125 L 764.375 758.167969 L 764.375 758.152344 C 764.375 758.152344 764.390625 758.152344 764.40625 758.148438 C 765.03125 758.015625 773.339844 756.570312 777.289062 770.179688 " fill-opacity="1" fill-rule="nonzero"/><path fill="#e6e6e6" d="M 764.378906 758.15625 C 764.378906 758.15625 763.699219 760.941406 771.183594 778.082031 C 771.183594 778.082031 775.316406 759.957031 764.378906 758.15625 " fill-opacity="1" fill-rule="nonzero"/><path fill="#4d4d4d" d="M 787.566406 756.859375 L 781.878906 764.234375 L 781.859375 764.234375 L 775.175781 744.722656 L 775.148438 744.652344 C 775.148438 744.652344 775.164062 744.652344 775.21875 744.648438 C 776.074219 744.507812 783.878906 743.699219 787.507812 756.613281 C 787.535156 756.699219 787.558594 756.789062 787.566406 756.859375 " fill-opacity="1" fill-rule="nonzero"/><path fill="#e6e6e6" d="M 775.144531 744.660156 C 775.144531 744.660156 774.796875 748.074219 781.859375 764.234375 C 781.859375 764.234375 785.457031 746.359375 775.144531 744.660156 " fill-opacity="1" fill-rule="nonzero"/><path fill="#4d4d4d" d="M 797.628906 743.808594 L 791.953125 751.164062 L 785.359375 732.015625 L 785.335938 731.980469 C 785.335938 731.980469 785.351562 731.980469 785.390625 731.976562 C 786.117188 731.828125 793.921875 730.613281 797.59375 743.632812 C 797.613281 743.683594 797.617188 743.753906 797.628906 743.808594 " fill-opacity="1" fill-rule="nonzero"/><path fill="#e6e6e6" d="M 785.328125 731.976562 C 785.328125 731.976562 784.921875 735.035156 791.980469 751.199219 C 791.980469 751.199219 795.644531 733.671875 785.328125 731.976562 " fill-opacity="1" fill-rule="nonzero"/><path fill="#4d4d4d" d="M 807.375 731.179688 L 802.109375 737.996094 C 802.089844 737.996094 802.089844 737.996094 802.074219 738 L 795.667969 719.1875 C 795.667969 719.1875 803.453125 717.085938 807.105469 730.140625 C 807.21875 730.503906 807.304688 730.851562 807.375 731.179688 " fill-opacity="1" fill-rule="nonzero"/><path fill="#e6e6e6" d="M 795.664062 719.195312 C 795.664062 719.195312 795.328125 722.535156 802.082031 737.992188 C 802.082031 737.992188 805.527344 720.816406 795.664062 719.195312 " fill-opacity="1" fill-rule="nonzero"/><path fill="#4d4d4d" d="M 816.867188 718.863281 L 811.859375 725.351562 L 805.511719 706.941406 C 805.511719 706.941406 813.214844 705.699219 816.621094 717.839844 C 816.730469 718.203125 816.800781 718.53125 816.867188 718.863281 " fill-opacity="1" fill-rule="nonzero"/><path fill="#e6e6e6" d="M 805.511719 706.933594 C 805.511719 706.933594 805.582031 710.988281 811.851562 725.351562 C 811.851562 725.351562 814.675781 708.441406 805.511719 706.933594 " fill-opacity="1" fill-rule="nonzero"/><path fill="#999999" d="M 961.285156 687.800781 C 961.242188 687.996094 960.921875 689.128906 960.921875 689.128906 L 959.789062 692.679688 L 957.273438 700.484375 L 955.039062 707.484375 L 952.394531 715.683594 L 950.148438 722.671875 L 947.308594 731.515625 L 945.117188 738.359375 L 942.265625 747.226562 L 939.964844 754.382812 L 936.925781 763.871094 L 936.910156 763.878906 L 934.359375 771.816406 L 931.316406 781.265625 L 929.023438 788.433594 L 926.007812 797.851562 L 923.78125 804.753906 L 920.464844 815.101562 L 918.21875 822.085938 L 914.976562 832.164062 L 912.507812 839.867188 L 909.261719 849.988281 L 907.015625 856.972656 L 903.414062 868.1875 L 900.800781 876.289062 L 897.242188 887.386719 L 894.8125 894.929688 L 891.234375 906.109375 L 891.21875 906.121094 L 888.949219 913.257812 L 885.191406 924.917969 L 882.660156 932.808594 L 879.082031 943.988281 L 879.085938 944.007812 L 876.8125 951.046875 L 873.21875 962.195312 L 871.128906 968.734375 L 867.242188 980.828125 L 867.226562 980.835938 L 864.445312 989.515625 L 860.601562 1001.488281 L 857.589844 1010.871094 L 853.800781 1022.679688 L 851.007812 1031.382812 L 843.46875 1028.96875 L 828.976562 1024.339844 L 843.851562 980.898438 L 843.871094 980.828125 L 843.894531 980.820312 L 857.023438 942.433594 L 857.050781 942.363281 L 863.183594 924.4375 L 875.910156 887.246094 L 875.898438 887.230469 C 875.898438 887.230469 875.898438 887.230469 875.914062 887.222656 L 882.277344 868.621094 L 882.304688 868.589844 L 888.792969 849.609375 L 888.808594 849.5625 L 894.820312 831.988281 L 894.832031 831.941406 L 900.824219 814.480469 L 900.839844 814.394531 L 906.5625 797.6875 L 912.34375 780.773438 L 912.367188 780.703125 L 917.941406 764.382812 L 917.976562 764.328125 L 923.738281 747.464844 L 923.765625 747.433594 L 929.339844 731.148438 L 929.355469 731.0625 L 934.609375 715.742188 L 934.625 715.695312 L 945.507812 683.886719 C 945.507812 683.886719 945.839844 683.058594 945.886719 682.917969 C 946.78125 680.78125 949.015625 679.367188 951.828125 679.210938 C 952.84375 679.152344 953.945312 679.25 955.074219 679.550781 C 955.199219 679.566406 955.339844 679.617188 955.472656 679.652344 C 957.074219 680.117188 958.28125 680.832031 959.15625 681.664062 C 961.273438 683.625 961.578125 686.246094 961.285156 687.800781 " fill-opacity="1" fill-rule="nonzero"/><path fill="#999999" d="M 960.746094 689.679688 L 851.011719 1031.390625 L 854.742188 1032.675781 L 963.507812 690.613281 L 960.746094 689.679688 " fill-opacity="1" fill-rule="nonzero"/><path fill="#666666" d="M 942.632812 683.015625 L 825.769531 1021.390625 L 829.515625 1022.785156 L 945.511719 683.886719 L 942.632812 683.015625 " fill-opacity="1" fill-rule="nonzero"/><path fill="#999999" d="M 825.769531 1021.390625 L 824.863281 1025.023438 L 828.484375 1026.460938 L 829.515625 1022.785156 L 825.769531 1021.390625 " fill-opacity="1" fill-rule="nonzero"/><path fill="#808080" d="M 851.011719 1031.390625 L 849.570312 1034.433594 L 853.480469 1035.550781 L 854.742188 1032.675781 L 851.011719 1031.390625 " fill-opacity="1" fill-rule="nonzero"/><path fill="#4d4d4d" d="M 961.285156 687.800781 C 961.242188 687.996094 960.921875 689.128906 960.921875 689.128906 L 959.789062 692.679688 L 957.273438 700.484375 L 955.039062 707.484375 L 952.394531 715.683594 L 950.148438 722.671875 L 947.308594 731.515625 L 945.117188 738.359375 L 942.265625 747.226562 L 939.964844 754.382812 L 936.925781 763.871094 L 936.910156 763.878906 L 934.359375 771.816406 L 931.316406 781.265625 L 929.023438 788.433594 L 926.007812 797.851562 L 923.78125 804.753906 L 920.464844 815.101562 L 918.21875 822.085938 L 914.976562 832.164062 L 912.507812 839.867188 L 909.261719 849.988281 L 907.015625 856.972656 L 903.414062 868.1875 L 900.800781 876.289062 L 897.242188 887.386719 L 894.8125 894.929688 L 891.234375 906.109375 L 891.21875 906.121094 L 888.949219 913.257812 L 885.191406 924.917969 L 882.660156 932.808594 L 879.082031 943.988281 L 879.085938 944.007812 L 876.8125 951.046875 L 873.21875 962.195312 L 871.128906 968.734375 L 867.242188 980.828125 L 867.226562 980.835938 L 864.445312 989.515625 L 860.601562 1001.488281 L 857.589844 1010.871094 L 853.800781 1022.679688 L 851.007812 1031.382812 L 843.46875 1028.96875 L 844.484375 1028.757812 L 959.15625 681.664062 C 961.273438 683.625 961.578125 686.246094 961.285156 687.800781 " fill-opacity="1" fill-rule="nonzero"/><path fill="#cccccc" d="M 955.074219 679.550781 L 841.378906 1024.625 L 835.035156 1023.308594 L 951.828125 679.210938 C 952.84375 679.152344 953.945312 679.25 955.074219 679.550781 " fill-opacity="1" fill-rule="nonzero"/><path fill="#b3b3b3" d="M 849.574219 1034.429688 C 846.308594 1038.808594 839.316406 1039.644531 833.921875 1036.300781 C 832.128906 1035.199219 830.753906 1033.765625 829.832031 1032.1875 C 827.953125 1029.011719 827.914062 1025.265625 830.082031 1022.355469 C 833.144531 1018.25 839.496094 1017.253906 844.71875 1019.914062 C 845.054688 1020.085938 845.382812 1020.28125 845.714844 1020.476562 C 851.113281 1023.816406 852.820312 1030.058594 849.574219 1034.429688 " fill-opacity="1" fill-rule="nonzero"/><path fill="#808080" d="M 844.484375 1029.777344 C 841.425781 1033.882812 835.042969 1034.855469 829.832031 1032.1875 C 827.953125 1029.011719 827.914062 1025.265625 830.082031 1022.355469 C 833.144531 1018.25 839.496094 1017.253906 844.71875 1019.914062 C 846.617188 1023.078125 846.664062 1026.84375 844.484375 1029.777344 " fill-opacity="1" fill-rule="nonzero"/><path fill="#4d4d4d" d="M 857.589844 1010.871094 L 853.800781 1022.679688 L 853.785156 1022.6875 L 836.738281 1001.765625 C 836.738281 1001.765625 846.671875 995.585938 857.589844 1010.871094 " fill-opacity="1" fill-rule="nonzero"/><path fill="#e6e6e6" d="M 836.734375 1001.765625 C 836.734375 1001.765625 837.707031 1005.6875 853.796875 1022.6875 C 853.796875 1022.6875 850.375 999.238281 836.734375 1001.765625 " fill-opacity="1" fill-rule="nonzero"/><path fill="#4d4d4d" d="M 864.445312 989.515625 L 860.601562 1001.488281 L 843.851562 980.898438 L 843.8125 980.855469 C 843.8125 980.855469 843.84375 980.84375 843.871094 980.828125 L 843.894531 980.820312 C 844.84375 980.359375 854.359375 976.246094 864.445312 989.515625 " fill-opacity="1" fill-rule="nonzero"/><path fill="#e6e6e6" d="M 843.8125 980.863281 C 843.8125 980.863281 844.523438 984.53125 860.609375 1001.53125 C 860.609375 1001.53125 857.449219 978.339844 843.8125 980.863281 " fill-opacity="1" fill-rule="nonzero"/><path fill="#4d4d4d" d="M 871.128906 968.734375 L 867.242188 980.828125 L 867.226562 980.835938 L 850.902344 960.351562 C 850.902344 960.351562 860.527344 954.792969 871.128906 968.734375 " fill-opacity="1" fill-rule="nonzero"/><path fill="#e6e6e6" d="M 850.914062 960.355469 C 850.914062 960.355469 851.136719 963.839844 867.226562 980.839844 C 867.226562 980.839844 864.550781 957.832031 850.914062 960.355469 " fill-opacity="1" fill-rule="nonzero"/><path fill="#4d4d4d" d="M 876.8125 951.046875 L 873.21875 962.195312 L 857.023438 942.433594 L 856.980469 942.394531 C 856.980469 942.394531 856.996094 942.386719 857.050781 942.363281 C 857.949219 941.910156 867.171875 937.800781 876.8125 951.046875 " fill-opacity="1" fill-rule="nonzero"/><path fill="#e6e6e6" d="M 856.984375 942.386719 C 856.984375 942.386719 858.1875 946.320312 873.253906 962.238281 C 873.253906 962.238281 869.761719 940.023438 856.984375 942.386719 " fill-opacity="1" fill-rule="nonzero"/><path fill="#4d4d4d" d="M 882.660156 932.808594 L 879.082031 943.988281 L 863.183594 924.4375 C 863.183594 924.4375 872.609375 919.328125 882.660156 932.808594 " fill-opacity="1" fill-rule="nonzero"/><path fill="#e6e6e6" d="M 863.179688 924.441406 C 863.179688 924.441406 864.027344 928.085938 879.089844 944.007812 C 879.089844 944.007812 875.945312 922.078125 863.179688 924.441406 " fill-opacity="1" fill-rule="nonzero"/><path fill="#4d4d4d" d="M 888.949219 913.257812 L 885.191406 924.917969 L 869.910156 904.890625 C 869.910156 904.890625 879.042969 900.3125 888.949219 913.257812 " fill-opacity="1" fill-rule="nonzero"/><path fill="#e6e6e6" d="M 869.917969 904.898438 C 869.917969 904.898438 870.125 908.992188 885.191406 924.914062 C 885.191406 924.914062 882.6875 902.535156 869.917969 904.898438 " fill-opacity="1" fill-rule="nonzero"/><path fill="#4d4d4d" d="M 894.8125 894.929688 L 891.234375 906.109375 L 891.21875 906.121094 L 875.910156 887.246094 L 875.898438 887.230469 C 875.898438 887.230469 875.898438 887.230469 875.914062 887.222656 C 876.308594 887.015625 885.261719 882.640625 894.8125 894.929688 " fill-opacity="1" fill-rule="nonzero"/><path fill="#e6e6e6" d="M 875.894531 887.238281 C 875.894531 887.238281 876.289062 890.347656 891.21875 906.128906 C 891.21875 906.128906 888.558594 884.898438 875.894531 887.238281 " fill-opacity="1" fill-rule="nonzero"/><path fill="#4d4d4d" d="M 900.800781 876.289062 L 897.242188 887.386719 C 897.222656 887.394531 897.222656 887.394531 897.210938 887.398438 L 882.277344 868.621094 L 882.269531 868.605469 C 882.269531 868.605469 882.285156 868.597656 882.304688 868.589844 C 882.882812 868.25 891.292969 863.765625 900.800781 876.289062 " fill-opacity="1" fill-rule="nonzero"/><path fill="#e6e6e6" d="M 882.269531 868.597656 C 882.269531 868.597656 882.28125 871.613281 897.214844 887.390625 C 897.214844 887.390625 894.929688 866.253906 882.269531 868.597656 " fill-opacity="1" fill-rule="nonzero"/><path fill="#4d4d4d" d="M 907.015625 856.972656 L 903.414062 868.1875 L 888.792969 849.609375 L 888.777344 849.578125 C 888.777344 849.578125 888.792969 849.570312 888.808594 849.5625 C 889.382812 849.207031 897.527344 844.535156 907.015625 856.972656 " fill-opacity="1" fill-rule="nonzero"/><path fill="#e6e6e6" d="M 888.773438 849.582031 C 888.773438 849.582031 888.472656 852.410156 903.414062 868.1875 C 903.414062 868.1875 901.433594 847.238281 888.773438 849.582031 " fill-opacity="1" fill-rule="nonzero"/><path fill="#999999" d="M 974.929688 729.746094 C 974.847656 729.929688 974.308594 730.972656 974.308594 730.972656 L 972.472656 734.21875 L 968.417969 741.347656 L 964.804688 747.75 L 960.550781 755.238281 L 956.933594 761.625 L 952.355469 769.707031 L 948.808594 775.960938 L 944.214844 784.0625 L 940.507812 790.597656 L 935.601562 799.269531 L 935.585938 799.273438 L 931.46875 806.527344 L 926.574219 815.164062 L 922.871094 821.710938 L 918 830.320312 L 914.417969 836.625 L 909.066406 846.078125 L 905.449219 852.464844 L 900.21875 861.671875 L 896.234375 868.710938 L 890.996094 877.957031 L 887.375 884.34375 L 881.570312 894.585938 L 877.363281 901.992188 L 871.621094 912.128906 L 867.714844 919.023438 L 861.933594 929.242188 L 861.917969 929.246094 L 858.242188 935.773438 L 852.191406 946.421875 L 848.101562 953.636719 L 842.324219 963.855469 L 842.328125 963.871094 L 838.664062 970.300781 L 832.878906 980.488281 L 829.503906 986.464844 L 823.246094 997.515625 L 823.222656 997.519531 L 818.734375 1005.453125 L 812.535156 1016.394531 L 807.675781 1024.964844 L 801.566406 1035.757812 L 797.066406 1043.707031 L 790.171875 1039.816406 L 776.925781 1032.332031 L 800.324219 992.824219 L 800.363281 992.757812 L 800.382812 992.753906 L 821.046875 957.84375 L 821.082031 957.78125 L 830.738281 941.476562 L 850.761719 907.652344 L 850.757812 907.636719 C 850.757812 907.636719 850.757812 907.636719 850.777344 907.632812 L 860.789062 890.710938 L 860.816406 890.6875 L 871.035156 873.425781 L 871.0625 873.382812 L 880.519531 857.398438 L 880.542969 857.355469 L 889.957031 841.476562 L 889.996094 841.398438 L 898.996094 826.203125 L 908.09375 810.820312 L 908.136719 810.757812 L 916.914062 795.910156 L 916.957031 795.863281 L 926.03125 780.523438 L 926.0625 780.496094 L 934.832031 765.691406 L 934.863281 765.609375 L 943.121094 751.675781 L 943.148438 751.632812 L 960.28125 722.703125 C 960.28125 722.703125 960.765625 721.960938 960.84375 721.832031 C 962.152344 719.921875 964.636719 718.992188 967.421875 719.410156 C 968.421875 719.5625 969.484375 719.882812 970.527344 720.40625 C 970.648438 720.449219 970.769531 720.527344 970.898438 720.585938 C 972.367188 721.367188 973.402344 722.3125 974.089844 723.304688 C 975.765625 725.65625 975.53125 728.285156 974.929688 729.746094 " fill-opacity="1" fill-rule="nonzero"/><g clip-path="url(#f616dbc326)"><path fill="#999999" d="M 974.019531 731.480469 L 797.058594 1043.71875 L 800.453125 1045.734375 L 976.53125 732.953125 L 974.019531 731.480469 " fill-opacity="1" fill-rule="nonzero"/></g><path fill="#666666" d="M 957.636719 721.265625 L 774.386719 1028.792969 L 777.761719 1030.914062 L 960.285156 722.703125 L 957.636719 721.265625 " fill-opacity="1" fill-rule="nonzero"/><path fill="#999999" d="M 774.386719 1028.792969 L 772.757812 1032.164062 L 776.003906 1034.308594 L 777.761719 1030.914062 L 774.386719 1028.792969 " fill-opacity="1" fill-rule="nonzero"/><path fill="#808080" d="M 797.058594 1043.71875 L 795.035156 1046.40625 L 798.632812 1048.292969 L 800.453125 1045.734375 L 797.058594 1043.71875 " fill-opacity="1" fill-rule="nonzero"/><path fill="#4d4d4d" d="M 974.929688 729.746094 C 974.847656 729.929688 974.308594 730.972656 974.308594 730.972656 L 972.472656 734.21875 L 968.417969 741.347656 L 964.804688 747.75 L 960.550781 755.238281 L 956.933594 761.625 L 952.355469 769.707031 L 948.808594 775.960938 L 944.214844 784.0625 L 940.507812 790.597656 L 935.601562 799.269531 L 935.585938 799.273438 L 931.46875 806.527344 L 926.574219 815.164062 L 922.871094 821.710938 L 918 830.320312 L 914.417969 836.625 L 909.066406 846.078125 L 905.449219 852.464844 L 900.21875 861.671875 L 896.234375 868.710938 L 890.996094 877.957031 L 887.375 884.34375 L 881.570312 894.585938 L 877.363281 901.992188 L 871.621094 912.128906 L 867.714844 919.023438 L 861.933594 929.242188 L 861.917969 929.246094 L 858.242188 935.773438 L 852.191406 946.421875 L 848.101562 953.636719 L 842.324219 963.855469 L 842.328125 963.871094 L 838.664062 970.300781 L 832.878906 980.488281 L 829.503906 986.464844 L 823.246094 997.515625 L 823.222656 997.519531 L 818.734375 1005.453125 L 812.535156 1016.394531 L 807.675781 1024.964844 L 801.566406 1035.757812 L 797.066406 1043.707031 L 790.171875 1039.816406 L 791.210938 1039.8125 L 974.089844 723.304688 C 975.765625 725.65625 975.53125 728.285156 974.929688 729.746094 " fill-opacity="1" fill-rule="nonzero"/><path fill="#cccccc" d="M 970.527344 720.40625 L 789.003906 1035.132812 L 783.0625 1032.550781 L 967.421875 719.410156 C 968.421875 719.5625 969.484375 719.882812 970.527344 720.40625 " fill-opacity="1" fill-rule="nonzero"/><path fill="#b3b3b3" d="M 795.035156 1046.398438 C 790.949219 1050.023438 783.929688 1049.421875 779.328125 1045.046875 C 777.800781 1043.609375 776.742188 1041.921875 776.167969 1040.191406 C 774.96875 1036.699219 775.691406 1033.023438 778.40625 1030.617188 C 782.246094 1027.21875 788.660156 1027.53125 793.234375 1031.203125 C 793.535156 1031.4375 793.816406 1031.695312 794.097656 1031.953125 C 798.703125 1036.324219 799.109375 1042.78125 795.035156 1046.398438 " fill-opacity="1" fill-rule="nonzero"/><path fill="#808080" d="M 791.003906 1040.8125 C 787.167969 1044.207031 780.722656 1043.863281 776.167969 1040.191406 C 774.96875 1036.699219 775.691406 1033.023438 778.40625 1030.617188 C 782.246094 1027.21875 788.660156 1027.53125 793.234375 1031.203125 C 794.449219 1034.6875 793.734375 1038.382812 791.003906 1040.8125 " fill-opacity="1" fill-rule="nonzero"/><path fill="#4d4d4d" d="M 807.675781 1024.964844 L 801.566406 1035.757812 L 801.546875 1035.761719 L 789.113281 1011.808594 C 789.113281 1011.808594 800.097656 1007.78125 807.675781 1024.964844 " fill-opacity="1" fill-rule="nonzero"/><path fill="#e6e6e6" d="M 789.113281 1011.808594 C 789.113281 1011.808594 789.261719 1015.847656 801.558594 1035.765625 C 801.558594 1035.765625 802.980469 1012.109375 789.113281 1011.808594 " fill-opacity="1" fill-rule="nonzero"/><path fill="#4d4d4d" d="M 818.734375 1005.453125 L 812.535156 1016.394531 L 800.324219 992.824219 L 800.292969 992.777344 C 800.292969 992.777344 800.328125 992.765625 800.363281 992.757812 L 800.382812 992.753906 C 801.410156 992.5 811.5625 990.40625 818.734375 1005.453125 " fill-opacity="1" fill-rule="nonzero"/><path fill="#e6e6e6" d="M 800.285156 992.78125 C 800.285156 992.78125 800.246094 996.519531 812.535156 1016.433594 C 812.535156 1016.433594 814.160156 993.082031 800.285156 992.78125 " fill-opacity="1" fill-rule="nonzero"/><path fill="#4d4d4d" d="M 829.503906 986.464844 L 823.246094 997.515625 L 823.222656 997.519531 L 811.40625 974.144531 C 811.40625 974.144531 821.960938 970.65625 829.503906 986.464844 " fill-opacity="1" fill-rule="nonzero"/><path fill="#e6e6e6" d="M 811.417969 974.148438 C 811.417969 974.148438 810.929688 977.605469 823.222656 997.523438 C 823.222656 997.523438 825.285156 974.449219 811.417969 974.148438 " fill-opacity="1" fill-rule="nonzero"/><path fill="#4d4d4d" d="M 838.664062 970.300781 L 832.878906 980.488281 L 821.046875 957.84375 L 821.015625 957.796875 C 821.015625 957.796875 821.03125 957.792969 821.082031 957.78125 C 822.058594 957.519531 831.921875 955.371094 838.664062 970.300781 " fill-opacity="1" fill-rule="nonzero"/><path fill="#e6e6e6" d="M 821.019531 957.789062 C 821.019531 957.789062 821.398438 961.886719 832.910156 980.535156 C 832.910156 980.535156 834.003906 958.074219 821.019531 957.789062 " fill-opacity="1" fill-rule="nonzero"/><path fill="#4d4d4d" d="M 848.101562 953.636719 L 842.324219 963.855469 L 830.738281 941.476562 C 830.738281 941.476562 841.007812 938.390625 848.101562 953.636719 " fill-opacity="1" fill-rule="nonzero"/><path fill="#e6e6e6" d="M 830.730469 941.480469 C 830.730469 941.480469 830.824219 945.222656 842.335938 963.875 C 842.335938 963.875 843.71875 941.765625 830.730469 941.480469 " fill-opacity="1" fill-rule="nonzero"/><path fill="#4d4d4d" d="M 858.242188 935.773438 L 852.191406 946.421875 L 841.300781 923.710938 C 841.300781 923.710938 851.175781 921.082031 858.242188 935.773438 " fill-opacity="1" fill-rule="nonzero"/><path fill="#e6e6e6" d="M 841.304688 923.714844 C 841.304688 923.714844 840.675781 927.769531 852.191406 946.417969 C 852.191406 946.417969 854.292969 924 841.304688 923.714844 " fill-opacity="1" fill-rule="nonzero"/><path fill="#4d4d4d" d="M 867.714844 919.023438 L 861.933594 929.242188 L 861.917969 929.246094 L 850.761719 907.652344 L 850.757812 907.636719 C 850.757812 907.636719 850.757812 907.636719 850.777344 907.632812 C 851.203125 907.507812 860.863281 905.046875 867.714844 919.023438 " fill-opacity="1" fill-rule="nonzero"/><path fill="#e6e6e6" d="M 850.753906 907.644531 C 850.753906 907.644531 850.5 910.769531 861.914062 929.253906 C 861.914062 929.253906 863.625 907.925781 850.753906 907.644531 " fill-opacity="1" fill-rule="nonzero"/><path fill="#4d4d4d" d="M 877.363281 901.992188 L 871.621094 912.128906 C 871.605469 912.132812 871.605469 912.132812 871.589844 912.136719 L 860.789062 890.710938 L 860.785156 890.695312 C 860.785156 890.695312 860.796875 890.691406 860.816406 890.6875 C 861.453125 890.472656 870.605469 887.792969 877.363281 901.992188 " fill-opacity="1" fill-rule="nonzero"/><path fill="#e6e6e6" d="M 860.789062 890.6875 C 860.789062 890.6875 860.179688 893.640625 871.59375 912.128906 C 871.59375 912.128906 873.664062 890.96875 860.789062 890.6875 " fill-opacity="1" fill-rule="nonzero"/><path fill="#4d4d4d" d="M 887.375 884.34375 L 881.570312 894.585938 L 871.035156 873.425781 L 871.023438 873.390625 C 871.023438 873.390625 871.039062 873.386719 871.0625 873.382812 C 871.695312 873.148438 880.625 870.234375 887.375 884.34375 " fill-opacity="1" fill-rule="nonzero"/><path fill="#e6e6e6" d="M 871.023438 873.394531 C 871.023438 873.394531 870.15625 876.101562 881.570312 894.585938 C 881.570312 894.585938 883.894531 873.675781 871.023438 873.394531 " fill-opacity="1" fill-rule="nonzero"/><path fill="#4d4d4d" d="M 896.234375 868.710938 L 890.996094 877.957031 L 890.980469 877.960938 L 880.519531 857.398438 L 880.492188 857.367188 C 880.492188 857.367188 880.511719 857.363281 880.542969 857.355469 C 881.324219 857.109375 890.03125 854.703125 896.234375 868.710938 " fill-opacity="1" fill-rule="nonzero"/><path fill="#e6e6e6" d="M 880.492188 857.371094 C 880.492188 857.371094 880.449219 860.917969 890.972656 877.957031 C 890.972656 877.957031 892.363281 857.632812 880.492188 857.371094 " fill-opacity="1" fill-rule="nonzero"/><path fill="#4d4d4d" d="M 905.449219 852.464844 L 900.21875 861.671875 L 900.203125 861.675781 L 889.957031 841.476562 L 889.925781 841.414062 C 889.925781 841.414062 889.945312 841.410156 889.996094 841.398438 C 890.828125 841.097656 899.324219 838.617188 905.449219 852.464844 " fill-opacity="1" fill-rule="nonzero"/><path fill="#e6e6e6" d="M 889.925781 841.417969 C 889.925781 841.417969 889.6875 844.640625 900.207031 861.683594 C 900.207031 861.683594 901.785156 841.679688 889.925781 841.417969 " fill-opacity="1" fill-rule="nonzero"/><path fill="#4d4d4d" d="M 754.613281 616.359375 L 754.613281 600.667969 L 573.34375 814.917969 L 573.34375 894.566406 L 754.613281 616.359375 " fill-opacity="1" fill-rule="nonzero"/><path fill="#cccccc" d="M 536.007812 784.714844 L 737.644531 581.378906 L 763.078125 583.699219 L 601.847656 793.945312 L 536.007812 784.714844 " fill-opacity="1" fill-rule="nonzero"/><path fill="#808080" d="M 763.078125 583.699219 L 763.078125 594.179688 L 601.847656 812.199219 L 601.847656 793.945312 L 763.078125 583.699219 " fill-opacity="1" fill-rule="nonzero"/><g clip-path="url(#215e8289fc)"><path fill="#999999" d="M 573.34375 894.566406 L 573.34375 814.917969 L 601.847656 812.199219 L 601.847656 793.945312 L 536.007812 784.714844 L 536.007812 800.476562 L 557.4375 811.859375 L 557.4375 892.054688 L 523.539062 893.824219 L 523.539062 912.089844 L 610.441406 931.972656 L 610.441406 909.277344 L 573.34375 894.566406 " fill-opacity="1" fill-rule="nonzero"/></g><path fill="#808080" d="M 610.441406 909.277344 L 763.078125 619.707031 L 763.078125 630.855469 L 610.441406 931.972656 L 610.441406 909.277344 " fill-opacity="1" fill-rule="nonzero"/><path fill="#999999" d="M 573.34375 894.566406 L 754.613281 616.359375 L 763.078125 619.707031 L 610.441406 909.277344 L 573.34375 894.566406 " fill-opacity="1" fill-rule="nonzero"/><g clip-path="url(#ff15e96692)"><path fill="#666666" d="M 523.539062 893.824219 L 557.4375 863.777344 L 557.4375 892.054688 Z M 523.539062 893.824219 " fill-opacity="1" fill-rule="nonzero"/></g><path fill="#999999" d="M 737.644531 581.378906 L 749.542969 582.464844 L 562.511719 788.429688 L 536.007812 784.714844 L 737.644531 581.378906 " fill-opacity="1" fill-rule="nonzero"/><path fill="#e6e6e6" d="M 750.113281 586.933594 L 577.269531 784.714844 L 590.925781 786.390625 L 754.617188 587.332031 L 750.113281 586.933594 " fill-opacity="1" fill-rule="nonzero"/><path fill="#e6e6e6" d="M 536.007812 784.714844 L 601.847656 793.945312 L 763.078125 583.699219 L 599.574219 788.429688 L 536.007812 784.714844 " fill-opacity="1" fill-rule="nonzero"/><path fill="#666666" d="M 536.007812 784.714844 L 737.644531 581.378906 L 745.5625 582.101562 Z M 536.007812 784.714844 " fill-opacity="1" fill-rule="nonzero"/><g clip-path="url(#f48c977325)"><path fill="#666666" d="M 523.539062 912.089844 L 563.089844 905.476562 L 573.34375 814.917969 L 573.34375 894.566406 L 610.441406 909.277344 L 610.441406 931.972656 L 523.539062 912.089844 " fill-opacity="1" fill-rule="nonzero"/></g><path fill="#333333" d="M 557.4375 863.777344 L 557.4375 892.054688 L 540.234375 892.953125 Z M 557.4375 863.777344 " fill-opacity="1" fill-rule="nonzero"/><path fill="#333333" d="M 573.34375 814.917969 L 573.34375 863.777344 L 754.613281 611.191406 L 754.613281 605.621094 L 601.847656 812.199219 L 573.34375 814.917969 " fill-opacity="1" fill-rule="nonzero"/><path fill="#666666" d="M 573.34375 894.566406 L 754.613281 616.359375 L 759.027344 618.105469 Z M 573.34375 894.566406 " fill-opacity="1" fill-rule="nonzero"/><path fill="#e6e6e6" d="M 573.34375 894.566406 L 610.441406 909.277344 L 763.078125 619.707031 L 607.722656 897.449219 L 573.34375 894.566406 " fill-opacity="1" fill-rule="nonzero"/><path fill="#4d4d4d" d="M 906.910156 699.09375 L 906.910156 681.875 L 735.65625 885.21875 L 735.65625 974.136719 L 906.910156 699.09375 " fill-opacity="1" fill-rule="nonzero"/><path fill="#cccccc" d="M 880.15625 648.59375 L 673.515625 851.054688 L 778.570312 870.398438 L 924.8125 651.1875 L 880.15625 648.59375 " fill-opacity="1" fill-rule="nonzero"/><path fill="#999999" d="M 778.570312 893.605469 L 778.570312 870.398438 L 673.515625 851.054688 L 673.515625 873.074219 L 713.269531 880.84375 L 713.269531 968.546875 L 673.515625 958.621094 L 673.515625 982.632812 L 778.570312 1010.820312 L 778.570312 984.992188 L 735.65625 974.136719 L 735.65625 885.21875 L 778.570312 893.605469 " fill-opacity="1" fill-rule="nonzero"/><path fill="#808080" d="M 778.570312 893.605469 L 924.8125 663.492188 L 924.8125 651.1875 L 778.570312 870.398438 L 778.570312 893.605469 " fill-opacity="1" fill-rule="nonzero"/><path fill="#808080" d="M 778.570312 984.992188 L 778.570312 1010.820312 L 924.8125 712.355469 L 924.8125 699.09375 L 778.570312 984.992188 " fill-opacity="1" fill-rule="nonzero"/><path fill="#999999" d="M 735.65625 974.136719 L 906.910156 699.09375 L 924.8125 699.09375 L 778.570312 984.992188 L 735.65625 974.136719 " fill-opacity="1" fill-rule="nonzero"/><path fill="#666666" d="M 673.515625 958.621094 L 713.269531 920.011719 L 713.269531 968.546875 Z M 673.515625 958.621094 " fill-opacity="1" fill-rule="nonzero"/><path fill="#999999" d="M 673.515625 851.054688 L 880.15625 648.59375 L 902.941406 650.023438 L 720.421875 859.691406 L 673.515625 851.054688 " fill-opacity="1" fill-rule="nonzero"/><path fill="#666666" d="M 673.515625 851.054688 L 880.15625 648.59375 L 891.417969 649.246094 Z M 673.515625 851.054688 " fill-opacity="1" fill-rule="nonzero"/><path fill="#e6e6e6" d="M 906.46875 655.425781 L 739.445312 855.8125 L 762.421875 859.691406 L 913.660156 655.847656 L 906.46875 655.425781 " fill-opacity="1" fill-rule="nonzero"/><path fill="#e6e6e6" d="M 673.515625 851.054688 L 778.570312 870.398438 L 924.8125 651.1875 L 774.792969 861.292969 L 673.515625 851.054688 " fill-opacity="1" fill-rule="nonzero"/><path fill="#333333" d="M 735.6875 885.199219 L 735.625 943.148438 L 771.257812 892.1875 Z M 735.6875 885.199219 " fill-opacity="1" fill-rule="nonzero"/><path fill="#333333" d="M 713.269531 920.011719 L 713.269531 968.546875 L 695.429688 964.089844 Z M 713.269531 920.011719 " fill-opacity="1" fill-rule="nonzero"/><path fill="#666666" d="M 735.65625 974.136719 L 906.910156 699.09375 L 918.566406 699.09375 Z M 735.65625 974.136719 " fill-opacity="1" fill-rule="nonzero"/><path fill="#e6e6e6" d="M 735.65625 974.136719 L 778.570312 984.992188 L 924.8125 699.09375 L 775.675781 978.234375 L 735.65625 974.136719 " fill-opacity="1" fill-rule="nonzero"/><path fill="#666666" d="M 735.65625 885.21875 L 721.769531 983.070312 L 673.515625 982.632812 L 778.570312 1010.820312 L 778.570312 984.992188 L 735.65625 974.136719 L 735.65625 885.21875 " fill-opacity="1" fill-rule="nonzero"/><path fill="#cccccc" d="M 833.574219 450.011719 L 614.445312 694.945312 L 747.050781 710.421875 L 892.496094 454.632812 L 833.574219 450.011719 " fill-opacity="1" fill-rule="nonzero"/><path fill="#808080" d="M 892.496094 454.632812 L 747.050781 710.421875 L 747.050781 788 L 892.496094 487.644531 L 892.496094 454.632812 " fill-opacity="1" fill-rule="nonzero"/><path fill="#b3b3b3" d="M 614.445312 694.945312 L 747.050781 710.421875 L 747.050781 788 L 614.996094 770.246094 L 614.445312 694.945312 " fill-opacity="1" fill-rule="nonzero"/><path fill="#333333" d="M 623.25 704.886719 L 623.78125 762.816406 L 661.726562 709.375 Z M 623.25 704.886719 " fill-opacity="1" fill-rule="nonzero"/><path fill="#333333" d="M 661.726562 709.375 L 623.78125 762.816406 L 738.214844 777.472656 L 738.109375 718.285156 L 661.726562 709.375 " fill-opacity="1" fill-rule="nonzero"/><path fill="#999999" d="M 614.445312 694.945312 L 833.574219 450.011719 L 863.941406 452.390625 L 665.09375 699.105469 L 614.445312 694.945312 " fill-opacity="1" fill-rule="nonzero"/><path fill="#f2f2f2" d="M 614.445312 694.945312 L 741.558594 701.785156 L 892.496094 454.632812 L 747.050781 710.421875 L 614.445312 694.945312 " fill-opacity="1" fill-rule="nonzero"/><path fill="#666666" d="M 614.445312 694.945312 L 833.574219 450.011719 L 843.003906 450.75 Z M 614.445312 694.945312 " fill-opacity="1" fill-rule="nonzero"/><path fill="#4d4d4d" d="M 747.050781 710.421875 L 885.167969 476.871094 L 885.167969 490.035156 L 747.050781 761.050781 L 747.496094 787.0625 L 892.496094 487.644531 L 892.496094 454.632812 L 747.050781 710.421875 " fill-opacity="1" fill-rule="nonzero"/><path fill="#4d4d4d" d="M 623.78125 762.816406 L 661.726562 709.375 L 738.109375 718.285156 Z M 623.78125 762.816406 " fill-opacity="1" fill-rule="nonzero"/><path fill="#1a1a1a" d="M 623.25 704.886719 L 623.78125 762.816406 L 631.902344 716.816406 L 738.109375 718.285156 L 623.25 704.886719 " fill-opacity="1" fill-rule="nonzero"/><path fill="#e6e6e6" d="M 865.71875 458.171875 L 691.292969 688.066406 L 713.722656 689.570312 L 872.339844 458.828125 L 865.71875 458.171875 " fill-opacity="1" fill-rule="nonzero"/><path fill="#b3b3b3" d="M 936.179688 542.988281 C 935.945312 543.953125 891.0625 741.535156 875.507812 791.492188 C 873.160156 799.046875 871.804688 803.394531 871.804688 803.394531 L 766.203125 764.636719 C 766.203125 764.636719 768.28125 760.125 771.84375 752.320312 C 794.367188 703.175781 885.378906 526.351562 885.679688 525.75 C 885.984375 525.167969 887.460938 523.441406 890.160156 521.753906 C 891.917969 520.632812 894.1875 519.539062 897.003906 518.796875 C 899.957031 517.980469 903.523438 517.570312 907.679688 517.894531 C 910.503906 518.132812 913.632812 518.71875 917.042969 519.78125 C 917.324219 519.867188 917.601562 519.949219 917.886719 520.046875 C 921.386719 521.203125 924.234375 522.707031 926.53125 524.414062 C 931.3125 527.9375 933.824219 532.28125 935.078125 535.878906 C 936.300781 539.394531 936.351562 542.230469 936.179688 542.988281 " fill-opacity="1" fill-rule="nonzero"/><path fill="#e6e6e6" d="M 917.042969 519.78125 L 832.195312 755.394531 L 812.515625 749.40625 L 907.679688 517.894531 C 910.503906 518.132812 913.632812 518.71875 917.042969 519.78125 " fill-opacity="1" fill-rule="nonzero"/><path fill="#666666" d="M 935.078125 535.878906 L 868.746094 789.144531 C 863.847656 776.636719 849.574219 762.976562 849.574219 762.976562 L 926.53125 524.414062 C 931.3125 527.9375 933.824219 532.28125 935.078125 535.878906 " fill-opacity="1" fill-rule="nonzero"/><path fill="#808080" d="M 890.160156 521.753906 L 776.199219 756.796875 C 776.59375 756.558594 782.875 752.578125 788.417969 751.03125 L 897.003906 518.796875 L 890.160156 521.753906 " fill-opacity="1" fill-rule="nonzero"/><path fill="#f2f2f2" d="M 875.503906 791.503906 C 873.148438 799.054688 871.800781 803.40625 871.800781 803.40625 L 766.195312 764.648438 C 766.195312 764.648438 768.269531 760.136719 771.835938 752.328125 C 786.011719 735.765625 811.402344 729.277344 835.480469 737.878906 C 860.308594 746.757812 876.019531 768.960938 875.503906 791.503906 " fill-opacity="1" fill-rule="nonzero"/><path fill="#cccccc" d="M 834.257812 741.273438 C 863.539062 751.742188 880.027344 780.5 871.089844 805.503906 C 862.144531 830.507812 831.164062 842.289062 801.882812 831.820312 C 772.605469 821.351562 756.117188 792.59375 765.058594 767.589844 C 773.996094 742.589844 804.976562 730.804688 834.257812 741.273438 " fill-opacity="1" fill-rule="nonzero"/><path fill="#1a1a1a" d="M 864.351562 803.09375 C 863.136719 806.480469 861.453125 809.578125 859.382812 812.375 C 848.199219 827.480469 825.601562 833.507812 804.046875 825.796875 C 786.074219 819.371094 773.613281 805.132812 770.484375 789.703125 C 769.132812 783.191406 769.484375 776.441406 771.789062 769.992188 C 779.535156 748.328125 806.542969 738.164062 832.101562 747.304688 C 857.667969 756.441406 872.113281 781.425781 864.351562 803.09375 " fill-opacity="1" fill-rule="nonzero"/><path fill="#4d4d4d" d="M 859.382812 812.375 C 848.199219 827.480469 825.601562 833.507812 804.046875 825.796875 C 786.074219 819.371094 773.613281 805.132812 770.484375 789.703125 C 782.597656 772.820312 805.464844 765.441406 826.769531 773.054688 C 844.867188 779.527344 856.984375 795.113281 859.382812 812.375 " fill-opacity="1" fill-rule="nonzero"/></svg>